# xmcd
#
# Track frame offsets:
#   150
#   21024
#   46141
#   72342
#   95415
#   135297
#   153037
#   174165
#   189931
#   216719
#   251898
#   280823
#   302127
#   329181
#
# Disc length: 4703 seconds
#
# Revision: 0
# Processed by: cddbd v1.5.2PL0 Copyright (c) Steve Scherf et al.
# Submitted via: GXTranscoder 2.24.2978
#
DISCID=c4125d0e
DTITLE=Eric Clapton - Red Hot Blues
DYEAR=2004
DGENRE=Blues
TTITLE0=Let it rain
TTITLE1=Hootchie coochie man
TTITLE2=Walk out in the rain
TTITLE3=Bell bottom blues
TTITLE4=I shot the sheriff
TTITLE5=Milkcow and calf blues
TTITLE6=When you got a good friend
TTITLE7=They're red hot
TTITLE8=Kind hearted woman blues
TTITLE9=Have you ever loved a woman
TTITLE10=Badge
TTITLE11=Wonderful tonight
TTITLE12=Layla
TTITLE13=Cocaine
EXTD=Recorded live\n24/04/04\nOdissey Arena - Belfast
EXTT0=
EXTT1=
EXTT2=
EXTT3=
EXTT4=
EXTT5=
EXTT6=
EXTT7=
EXTT8=
EXTT9=
EXTT10=
EXTT11=
EXTT12=
EXTT13=
PLAYORDER=
